<svg version="1.1" id="Layer_1" xmlns="http://www.w3.org/2000/svg" xmlns:xlink="http://www.w3.org/1999/xlink" x="0px" y="0px"
	 width="100%" viewBox="0 0 1920 1920" enable-background="new 0 0 1920 1920" xml:space="preserve">
<path fill="#000000" opacity="1.000000" stroke="none" 
	d="
M1257.000000,1921.000000 
	C838.000000,1921.000000 419.500000,1921.000000 1.000000,1921.000000 
	C1.000000,1281.000000 1.000000,641.000000 1.000000,1.000000 
	C641.000000,1.000000 1281.000000,1.000000 1921.000000,1.000000 
	C1921.000000,641.000000 1921.000000,1281.000000 1921.000000,1921.000000 
	C1699.833374,1921.000000 1478.666626,1921.000000 1257.000000,1921.000000 
M1129.039429,1582.539917 
	C1141.044556,1575.683838 1152.948730,1568.640747 1165.110229,1562.074219 
	C1169.305664,1559.808838 1170.960327,1557.258667 1170.947021,1552.379272 
	C1170.808472,1501.880737 1170.986694,1451.381226 1170.865234,1400.882446 
	C1170.854370,1396.361938 1172.354614,1394.133911 1176.348145,1392.156982 
	C1218.611816,1371.233643 1260.774902,1350.106934 1302.965820,1329.036255 
	C1337.105835,1311.986450 1371.263062,1294.970581 1405.340942,1277.797363 
	C1407.275879,1276.822266 1409.563110,1274.755737 1409.944092,1272.848999 
	C1410.814697,1268.491577 1410.791992,1263.919067 1410.806152,1259.432739 
	C1411.173828,1142.615723 1411.531616,1025.798584 1411.819092,908.981262 
	C1411.955566,853.482483 1411.922241,797.983154 1412.054321,742.484314 
	C1412.062378,739.149780 1411.282471,737.097473 1408.048096,735.422241 
	C1368.843384,715.116943 1329.719604,694.655029 1290.591187,674.202759 
	C1267.410400,662.086182 1244.269653,649.893250 1221.090576,637.773315 
	C1194.514771,623.877319 1167.906738,610.042908 1141.342285,596.125183 
	C1138.503418,594.637817 1136.287964,594.667603 1133.649536,596.839783 
	C1096.369751,627.531860 1059.063965,658.193176 1021.581360,688.636414 
	C1018.013794,691.533997 1016.923950,694.416138 1016.927185,698.745972 
	C1017.017883,820.077393 1017.000000,941.408875 1017.000000,1062.740356 
	C1017.000000,1064.981445 1017.000000,1067.222534 1017.000000,1070.406616 
	C1014.363953,1069.162598 1012.727539,1068.473389 1011.167236,1067.641479 
	C985.292786,1053.848145 959.460144,1039.975586 933.518860,1026.309448 
	C930.375305,1024.653442 929.929626,1022.506775 930.005859,1019.461548 
	C930.664185,993.160278 931.271362,966.857727 931.823364,940.554016 
	C932.221741,921.570862 932.513062,902.585449 932.851440,883.601074 
	C933.522217,845.965515 934.189941,808.329834 934.863892,770.694336 
	C935.185913,752.709717 935.524658,734.725403 935.846252,716.740723 
	C936.522278,678.938599 937.189819,641.136353 937.864990,603.334229 
	C938.189148,585.182983 938.548340,567.032288 938.845581,548.880554 
	C939.243774,524.563416 939.492981,500.243073 940.068970,475.930328 
	C940.169128,471.702454 938.783997,469.325775 935.241272,467.151764 
	C841.385681,409.557556 747.575562,351.889038 653.838074,294.102905 
	C649.895752,291.672638 647.165955,291.916199 643.570007,294.566742 
	C600.662231,326.193787 557.665649,357.700500 514.678467,389.219818 
	C511.457550,391.581482 509.887878,394.299469 509.891541,398.644928 
	C510.021332,551.475830 510.000000,704.306885 510.000000,857.137878 
	C510.000000,1008.635559 510.011719,1160.133301 509.934021,1311.630981 
	C509.932037,1315.498291 510.835266,1317.839478 514.482422,1319.951294 
	C545.909180,1338.148438 577.179565,1356.615723 608.490906,1375.012085 
	C652.872498,1401.087646 697.239929,1427.187378 741.630249,1453.248169 
	C806.276428,1491.200806 870.943481,1529.117554 935.590149,1567.069214 
	C970.211914,1587.394409 1004.829834,1607.726562 1039.387695,1628.160278 
	C1042.964111,1630.275269 1045.930176,1630.328979 1049.549194,1628.232056 
	C1075.781372,1613.032593 1102.102295,1597.986328 1129.039429,1582.539917 
z"/>
<path fill="#321055" opacity="1.000000" stroke="none" 
	d="
M1128.717285,1582.715820 
	C1102.102295,1597.986328 1075.781372,1613.032593 1049.549194,1628.232056 
	C1045.930176,1630.328979 1042.964111,1630.275269 1039.387695,1628.160278 
	C1004.829834,1607.726562 970.211914,1587.394409 935.590149,1567.069214 
	C870.943481,1529.117554 806.276428,1491.200806 741.630249,1453.248169 
	C697.239929,1427.187378 652.872498,1401.087646 608.490906,1375.012085 
	C577.179565,1356.615723 545.909180,1338.148438 514.482422,1319.951294 
	C510.835266,1317.839478 509.932037,1315.498291 509.934021,1311.630981 
	C510.011719,1160.133301 510.000000,1008.635559 510.000000,857.137878 
	C510.000000,704.306885 510.021332,551.475830 509.891541,398.644928 
	C509.887878,394.299469 511.457550,391.581482 514.678467,389.219818 
	C557.665649,357.700500 600.662231,326.193787 643.570007,294.566742 
	C647.165955,291.916199 649.895752,291.672638 653.838074,294.102905 
	C747.575562,351.889038 841.385681,409.557556 935.241272,467.151764 
	C938.783997,469.325775 940.169128,471.702454 940.068970,475.930328 
	C939.492981,500.243073 939.243774,524.563416 938.845581,548.880554 
	C938.548340,567.032288 938.189148,585.182983 937.864990,603.334229 
	C937.189819,641.136353 936.522278,678.938599 935.846252,716.740723 
	C935.524658,734.725403 935.185913,752.709717 934.863892,770.694336 
	C934.189941,808.329834 933.522217,845.965515 932.851440,883.601074 
	C932.513062,902.585449 932.221741,921.570862 931.823364,940.554016 
	C931.271362,966.857727 930.664185,993.160278 930.005859,1019.461548 
	C929.929626,1022.506775 930.375305,1024.653442 933.518860,1026.309448 
	C959.460144,1039.975586 985.292786,1053.848145 1011.167236,1067.641479 
	C1012.727539,1068.473389 1014.363953,1069.162598 1017.000000,1070.406616 
	C1017.000000,1067.222534 1017.000000,1064.981445 1017.000000,1062.740356 
	C1017.000000,941.408875 1017.017883,820.077393 1016.927185,698.745972 
	C1016.923950,694.416138 1018.013794,691.533997 1021.581360,688.636414 
	C1059.063965,658.193176 1096.369751,627.531860 1133.649536,596.839783 
	C1136.287964,594.667603 1138.503418,594.637817 1141.342285,596.125183 
	C1167.906738,610.042908 1194.514771,623.877319 1221.090576,637.773315 
	C1244.269653,649.893250 1267.410400,662.086182 1290.591187,674.202759 
	C1329.719604,694.655029 1368.843384,715.116943 1408.048096,735.422241 
	C1411.282471,737.097473 1412.062378,739.149780 1412.054321,742.484314 
	C1411.922241,797.983154 1411.955566,853.482483 1411.819092,908.981262 
	C1411.531616,1025.798584 1411.173828,1142.615723 1410.806152,1259.432739 
	C1410.791992,1263.919067 1410.814697,1268.491577 1409.944092,1272.848999 
	C1409.563110,1274.755737 1407.275879,1276.822266 1405.340942,1277.797363 
	C1371.263062,1294.970581 1337.105835,1311.986450 1302.965820,1329.036255 
	C1260.774902,1350.106934 1218.611816,1371.233643 1176.348145,1392.156982 
	C1172.354614,1394.133911 1170.854370,1396.361938 1170.865234,1400.882446 
	C1170.986694,1451.381226 1170.808472,1501.880737 1170.947021,1552.379272 
	C1170.960327,1557.258667 1169.305664,1559.808838 1165.110229,1562.074219 
	C1152.948730,1568.640747 1141.044556,1575.683838 1128.717285,1582.715820 
M1041.990356,1290.270630 
	C1043.595947,1290.413452 1045.411865,1290.114380 1046.776611,1290.763428 
	C1084.729614,1308.816528 1122.650757,1326.936646 1160.523315,1345.157715 
	C1163.328125,1346.507202 1165.403198,1346.616333 1168.212769,1344.970337 
	C1206.104248,1322.769653 1244.060425,1300.678955 1282.075928,1278.690918 
	C1285.041992,1276.975464 1286.082520,1275.127441 1286.080322,1271.695435 
	C1285.986694,1127.384766 1285.984619,983.074097 1286.087036,838.763489 
	C1286.089722,835.070862 1284.893677,833.277466 1281.662231,831.599609 
	C1251.461792,815.917786 1221.370117,800.026428 1191.231567,784.225159 
	C1143.100464,758.990662 1094.958374,733.777161 1046.816284,708.563538 
	C1045.392334,707.817749 1043.917236,707.169678 1041.819824,706.167236 
	C1041.819824,900.497253 1041.819824,1094.164185 1041.819824,1288.144165 
	C1040.525024,1287.724609 1039.761353,1287.477173 1038.467163,1286.768066 
	C1000.282410,1264.117432 962.098999,1241.464355 923.912476,1218.816772 
	C881.479553,1193.650757 839.070679,1168.444092 796.558594,1143.412476 
	C793.121765,1141.388794 791.902710,1139.270264 791.906433,1135.283325 
	C792.021179,1014.117310 792.000000,892.951172 792.000000,771.785034 
	C792.000000,702.285339 791.962769,632.785583 792.099365,563.286133 
	C792.106934,559.425903 791.028076,557.313171 787.606995,555.550049 
	C781.872314,552.594666 776.424683,549.081543 770.862366,545.792725 
	C698.127991,502.787689 625.395203,459.779968 552.657654,416.780304 
	C551.288025,415.970642 549.865479,415.250336 548.000000,414.233398 
	C548.000000,416.385010 548.000000,417.865753 548.000000,419.346527 
	C548.000000,706.678589 548.007446,994.010681 547.915222,1281.342773 
	C547.914062,1284.960205 548.966309,1286.910400 552.109375,1288.765991 
	C617.135437,1327.154907 682.089478,1365.666016 747.049683,1404.166626 
	C783.310364,1425.657349 819.552551,1447.179199 855.810425,1468.674561 
	C916.067383,1504.397583 976.329346,1540.112427 1036.596191,1575.818726 
	C1038.212158,1576.776123 1039.909424,1577.595947 1042.000000,1578.709717 
	C1042.000000,1576.808228 1042.000000,1575.647583 1042.000000,1574.487061 
	C1042.000000,1481.320801 1042.000610,1388.154541 1041.993042,1294.988281 
	C1041.992920,1293.658936 1041.888916,1292.329590 1041.990356,1290.270630 
z"/>
<path fill="#F4F4F4" opacity="1.000000" stroke="none" 
	d="
M1041.833374,1291.000244 
	C1041.888916,1292.329590 1041.992920,1293.658936 1041.993042,1294.988281 
	C1042.000610,1388.154541 1042.000000,1481.320801 1042.000000,1574.487061 
	C1042.000000,1575.647583 1042.000000,1576.808228 1042.000000,1578.709717 
	C1039.909424,1577.595947 1038.212158,1576.776123 1036.596191,1575.818726 
	C976.329346,1540.112427 916.067383,1504.397583 855.810425,1468.674561 
	C819.552551,1447.179199 783.310364,1425.657349 747.049683,1404.166626 
	C682.089478,1365.666016 617.135437,1327.154907 552.109375,1288.765991 
	C548.966309,1286.910400 547.914062,1284.960205 547.915222,1281.342773 
	C548.007446,994.010681 548.000000,706.678589 548.000000,419.346527 
	C548.000000,417.865753 548.000000,416.385010 548.000000,414.233398 
	C549.865479,415.250336 551.288025,415.970642 552.657654,416.780304 
	C625.395203,459.779968 698.127991,502.787689 770.862366,545.792725 
	C776.424683,549.081543 781.872314,552.594666 787.606995,555.550049 
	C791.028076,557.313171 792.106934,559.425903 792.099365,563.286133 
	C791.962769,632.785583 792.000000,702.285339 792.000000,771.785034 
	C792.000000,892.951172 792.021179,1014.117310 791.906433,1135.283325 
	C791.902710,1139.270264 793.121765,1141.388794 796.558594,1143.412476 
	C839.070679,1168.444092 881.479553,1193.650757 923.912476,1218.816772 
	C962.098999,1241.464355 1000.282410,1264.117432 1038.749512,1287.331909 
	C1039.965576,1288.930542 1040.899536,1289.965454 1041.833374,1291.000244 
z"/>
<path fill="#F4F4F4" opacity="1.000000" stroke="none" 
	d="
M1041.911865,1290.635498 
	C1040.899536,1289.965454 1039.965576,1288.930542 1039.014771,1287.562744 
	C1039.761353,1287.477173 1040.525024,1287.724609 1041.819824,1288.144165 
	C1041.819824,1094.164185 1041.819824,900.497253 1041.819824,706.167236 
	C1043.917236,707.169678 1045.392334,707.817749 1046.816284,708.563538 
	C1094.958374,733.777161 1143.100464,758.990662 1191.231567,784.225159 
	C1221.370117,800.026428 1251.461792,815.917786 1281.662231,831.599609 
	C1284.893677,833.277466 1286.089722,835.070862 1286.087036,838.763489 
	C1285.984619,983.074097 1285.986694,1127.384766 1286.080322,1271.695435 
	C1286.082520,1275.127441 1285.041992,1276.975464 1282.075928,1278.690918 
	C1244.060425,1300.678955 1206.104248,1322.769653 1168.212769,1344.970337 
	C1165.403198,1346.616333 1163.328125,1346.507202 1160.523315,1345.157715 
	C1122.650757,1326.936646 1084.729614,1308.816528 1046.776611,1290.763428 
	C1045.411865,1290.114380 1043.595947,1290.413452 1041.911865,1290.635498 
z"/>
</svg>